HIERARCHY
ROOT hip
{
	OFFSET 0.000000 0.000000 0.000000 
	CHANNELS 6 Xposition Yposition Zposition Xrotation Zrotation Yrotation
	JOINT abdomen
	{
		OFFSET 0.000000 3.402643 0.000000 
		CHANNELS 3 Xrotation Zrotation Yrotation
		JOINT chest
		{
			OFFSET 0.000000 8.438565 -0.680529 
			CHANNELS 3 Xrotation Zrotation Yrotation
			JOINT neck
			{
				OFFSET 0.000000 10.207942 -0.272212 
				CHANNELS 3 Xrotation Zrotation Yrotation
				JOINT head
				{
					OFFSET 0.000000 3.130431 0.000000 
					CHANNELS 3 Xrotation Zrotation Yrotation
					End Site
					{
						OFFSET 0.000000 3.130435 0.000000 
					}
				}
			}
			JOINT lCollar
			{
				OFFSET 3.470700 6.669187 -0.816635 
				CHANNELS 3 Yrotation Zrotation Xrotation
				JOINT lShldr
				{
					OFFSET 3.198488 0.000000 0.000000 
					CHANNELS 3 Zrotation Yrotation Xrotation
					JOINT lForeArm
					{
						OFFSET 10.139888 0.000000 0.000000 
						CHANNELS 3 Yrotation Zrotation Xrotation
						JOINT lHand
						{
							OFFSET 8.370511 0.000000 0.000000 
							CHANNELS 3 Zrotation Yrotation Xrotation
							End Site
							{
								OFFSET 4.083176 0.000000 0.000000 
							}
						}
					}
				}
			}
			JOINT rCollar
			{
				OFFSET -3.470700 6.669187 -0.816635 
				CHANNELS 3 Yrotation Zrotation Xrotation
				JOINT rShldr
				{
					OFFSET -3.198488 0.000000 0.000000 
					CHANNELS 3 Zrotation Yrotation Xrotation
					JOINT rForeArm
					{
						OFFSET -10.139888 0.000000 0.000000 
						CHANNELS 3 Yrotation Zrotation Xrotation
						JOINT rHand
						{
							OFFSET -8.370511 0.000000 0.000000 
							CHANNELS 3 Zrotation Yrotation Xrotation
							End Site
							{
								OFFSET -4.083176 0.000000 0.000000 
							}
						}
					}
				}
			}
		}
	}
	JOINT lThigh
	{
		OFFSET 5.308129 -1.633274 1.361059 
		CHANNELS 3 Xrotation Zrotation Yrotation
		JOINT lShin
		{
			OFFSET -2.041588 -20.007561 0.000000 
			CHANNELS 3 Xrotation Zrotation Yrotation
			JOINT lFoot
			{
				OFFSET 0.000000 -19.190928 -1.224953 
				CHANNELS 3 Xrotation Yrotation Zrotation
				End Site
				{
					OFFSET 0.000000 -2.449906 4.627600 
				}
			}
		}
	}
	JOINT rThigh
	{
		OFFSET -5.308129 -1.633274 1.361059 
		CHANNELS 3 Xrotation Zrotation Yrotation
		JOINT rShin
		{
			OFFSET 2.041588 -20.007561 0.000000 
			CHANNELS 3 Xrotation Zrotation Yrotation
			JOINT rFoot
			{
				OFFSET 0.000000 -19.190928 -1.224953 
				CHANNELS 3 Xrotation Yrotation Zrotation
				End Site
				{
					OFFSET 0.000000 -2.449906 4.627600 
				}
			}
		}
	}
}
MOTION
Frames: 10
Frame Time: 0.016667
1.835589 40.055519 3.895445 23.374849 13.664090 -0.341083 1.477855 3.797568 -6.171198 5.553638 12.579295 -2.526430 -12.645178 -3.278018 0.873940 10.367271 9.090541 -1.301149 2.239031 1.334920 0.039219 -80.511368 18.092316 -151.428452 95.615341 -2.480119 3.495473 1.653298 -3.397819 -171.212509 -3.938843 -2.982474 0.045583 84.344566 11.808076 150.373962 -113.066391 2.443623 3.768882 178.346710 176.602173 -4.375996 26.451490 -12.653906 4.849097 0.009754 0.000298 -0.000377 -31.755219 12.256970 7.464607 -75.800087 4.746347 4.428862 55.325577 -0.017827 0.020340 -6.371013 -2.448496 -0.298407 
1.891577 41.550419 8.058497 23.387646 13.880218 -0.150755 1.468444 4.012358 -6.771797 5.749875 11.943306 -2.819503 -12.645178 -3.278018 0.873940 10.640364 8.302168 -0.703871 2.239031 1.334920 0.039219 -80.572769 21.524519 -151.514175 90.797417 -2.476782 3.388537 -178.346100 -176.592438 7.967175 -3.938843 -2.982474 0.045583 86.114197 14.510964 155.988739 -117.678383 2.417344 3.848682 178.336349 176.593018 5.887095 30.026098 -15.271231 3.478030 0.009743 0.000542 -0.000381 -34.642727 -15.357390 -10.369784 -69.312958 2.578024 2.192310 44.916161 -0.009884 0.020866 -5.318211 -1.992704 -0.183059 
2.114634 42.343430 11.981118 22.189028 13.924916 -0.153897 1.900991 4.723973 -7.128269 5.784858 12.175878 -3.012902 -12.645178 -3.278018 0.873940 10.418762 7.607609 -0.192538 2.239031 1.334920 0.039219 -82.587082 24.180599 -151.797623 84.289551 -2.458369 3.272184 -178.346100 -176.592438 6.033580 -3.938843 -2.982474 0.045583 85.160706 17.898230 163.581406 -121.489029 2.390868 3.912513 -1.663659 3.406970 -161.925400 12.624531 -13.004313 10.106929 42.885498 -0.033091 0.023091 -9.945164 -18.893206 -3.245068 -62.303352 0.547172 -1.108560 37.595501 -0.005990 0.026938 -2.910856 -2.789559 -0.148801 
2.448802 42.424557 15.657727 20.327515 13.679698 0.359579 2.429329 4.488167 -7.163119 4.867612 10.548616 -3.236674 -12.645178 -3.278018 0.873940 10.353673 7.089925 0.005363 2.239031 1.334920 0.039219 -82.520409 26.764135 -150.798141 77.391029 -2.424582 3.151552 -178.356476 -176.601593 3.348614 -3.938843 -2.982474 0.045583 83.299324 21.058672 171.472733 -124.273666 2.368866 3.957975 -1.653298 3.397818 -149.209976 7.819608 -10.804242 13.720651 61.446423 -0.027478 0.000540 7.200174 8.013711 -1.030776 -57.122234 -1.601365 -4.263124 36.560432 0.000062 0.004722 -1.932786 -3.523261 -0.122236 
2.704336 42.100567 19.235283 15.754059 13.280368 0.584585 3.254257 4.933477 -7.307086 2.762482 10.651954 -3.609867 -12.645178 -3.278018 0.873940 10.709702 6.819056 0.409299 2.239031 1.334920 0.039219 -84.170258 30.106394 -150.124146 70.219215 -2.374406 3.031809 -178.356476 -176.601593 3.553692 -3.938843 -2.982474 0.045583 -102.506622 155.645050 -0.415971 -125.915100 2.354870 3.984255 -1.653298 3.397818 -140.674820 7.564959 -7.874825 14.643485 72.825516 -0.029432 -0.004193 5.578062 9.204156 -0.885031 -50.730343 -3.408015 -7.243552 40.567776 -0.009946 -0.003323 -3.080302 -5.196776 -0.276433 
2.920861 41.499535 22.637827 14.002180 12.709923 -0.941277 3.968981 4.793218 -5.985714 1.981299 9.672057 -3.075010 -12.645178 -3.278018 0.873940 10.563468 6.622921 0.330459 2.239031 1.334920 0.039219 -84.188148 31.984058 -148.547913 62.432308 -2.303463 2.909986 -178.346100 -176.592438 5.359753 -3.938843 -2.982474 0.045583 -108.961174 151.992920 5.148410 -125.534058 2.358186 3.978190 -1.653895 3.407565 -135.928726 4.089591 -4.282879 17.535986 83.218803 -0.029584 -0.010006 4.328930 11.217007 -0.848559 -47.404381 -3.006560 -8.793337 47.282257 0.000032 0.004210 -8.640990 -9.238959 -1.408985 
3.143379 40.943203 25.928343 6.884599 11.403745 -3.661702 6.009655 5.040649 -4.127726 -0.733195 9.725782 -2.535846 -12.645178 -3.278018 0.873940 10.091655 6.609890 0.237771 2.239031 1.334920 0.039219 -86.019028 33.404774 -148.454132 53.747242 -2.205693 2.786460 1.653298 -3.397819 -171.173447 -3.938843 -2.982474 0.045583 63.643860 31.025867 -171.428101 -123.687431 2.373681 3.948493 -1.653895 3.407565 -133.477570 6.205111 0.576515 20.237713 93.789139 -0.019492 -0.037841 4.632066 6.238156 -0.529943 -38.209450 -2.246043 -8.436746 53.519104 0.007752 -0.014427 -16.524277 -10.271981 -3.029137 
3.341823 40.478916 29.182701 6.455758 7.753861 -5.501094 6.668684 6.091632 -2.257769 -1.354140 8.884276 -1.692544 -12.645178 -3.278018 0.873940 9.677373 6.772460 -0.014296 2.239031 1.334920 0.039219 -88.281059 34.138222 -149.961441 44.906723 -2.088227 2.677716 1.653298 -3.397819 -167.062119 -3.938843 -2.982474 0.045583 58.348339 32.560551 -169.215179 -119.749825 2.403479 3.883598 -1.653895 3.407565 -133.360367 0.438155 8.708507 21.945185 103.396820 -0.030362 -0.017533 3.743266 2.147480 -0.121188 -33.388107 1.366757 -9.367211 55.414501 0.005315 0.007186 -22.169762 -10.495337 -4.257017 
3.493943 40.441177 32.618118 7.109303 2.984730 -6.297832 7.174542 5.716906 -0.169952 -1.312642 4.500776 -0.395675 -12.645178 -3.278018 0.873940 9.534579 7.336871 -0.773377 2.239031 1.334920 0.039219 -84.737556 34.595711 -148.541245 38.928898 -1.999923 2.614989 1.653298 -3.397819 -164.776962 -3.938843 -2.982474 0.045583 57.739723 30.617105 -169.371246 -113.584267 2.440992 3.778314 -1.653895 3.407565 -135.020538 -7.656065 17.301687 19.990093 109.375366 -0.031614 -0.031412 2.668347 -1.877065 0.093545 -26.784195 5.663183 -11.520524 53.059422 0.023120 0.000266 -25.707600 -10.977265 -5.235168 
3.451209 40.453403 35.999622 7.755250 3.057766 -5.833327 7.397110 4.609919 1.291600 -0.557280 2.744011 0.490929 -12.645178 -3.278018 0.873940 9.500248 7.833905 -1.781661 2.239031 1.334920 0.039219 -80.939133 36.026978 -147.867950 37.805664 -1.982625 2.604246 1.653298 -3.397819 -164.278915 -3.938843 -2.982474 0.045583 57.629189 28.930059 -170.335983 -104.340462 2.475531 3.614045 -1.653895 3.407565 -135.684586 -17.773518 18.222675 16.184498 113.162430 -0.016989 -0.033459 1.660604 -2.860372 0.084315 -20.804007 5.409413 -11.164447 50.126408 0.015996 0.014706 -27.298895 -11.941723 -6.098237 
